<svg width="42" height="40" viewBox="0 0 42 40" fill="none" xmlns="http://www.w3.org/2000/svg">
<path fill-rule="evenodd" clip-rule="evenodd" d="M36.2401 4.77997C37.5901 5.02997 38.8101 5.71997 39.7001 6.79997C42.4901 10.2 40.6601 15.38 36.3901 16.26C35.9046 16.3586 35.3746 16.3643 34.8042 16.3703C33.1774 16.3876 31.2216 16.4085 29.0301 18.6L28.4801 19.15L21.8501 12.52L22.4301 11.94C24.2001 10.17 24.6301 7.62997 24.6201 5.87997C24.6201 0.469971 31.1001 -1.84003 34.6301 1.68997C35.4801 2.53997 36.0301 3.61997 36.2401 4.77997ZM15.21 19.15L20.19 14.18L26.82 20.81L21.85 25.78L15.21 19.15ZM13.5597 20.81L12.9997 21.3601C11.4297 22.93 9.35974 23.8001 7.46974 23.6C2.17974 23.0501 -0.940256 29.1701 2.32974 33.1501C3.21974 34.23 4.43974 34.92 5.78974 35.17C5.99974 36.33 6.54974 37.41 7.39974 38.26C11.0897 41.9501 17.4097 39.33 17.4097 34.07C17.3997 32.32 17.8297 29.7801 19.5897 28.01L20.1697 27.43L13.5597 20.81ZM26.8202 24.13L31.6502 28.96C31.9602 29.26 32.0702 29.71 31.9402 30.12C31.8202 30.53 31.4702 30.85 31.0502 30.93L27.6702 31.61L26.9902 34.99C26.9002 35.41 26.5902 35.76 26.1802 35.88C25.7702 36.01 25.3202 35.9 25.0102 35.59L20.4102 30.99C20.6202 30.52 20.8802 30.07 21.2602 29.69L26.8202 24.13Z" fill="url(#paint0_linear_1_246)"/>
<defs>
<linearGradient id="paint0_linear_1_246" x1="21.0122" y1="0.00463867" x2="21.0122" y2="26.5" gradientUnits="userSpaceOnUse">
<stop stop-color="white" stop-opacity="0.6"/>
<stop offset="1" stop-color="white"/>
</linearGradient>
</defs>
</svg>
